inDegrees=no
num_controls=7
num_derivatives=13
num_iterations=148
num_multipliers=7
num_parameters=0
num_slacks=7
num_states=26
objective=5.483296
objective_accelerations=0.528004
objective_balance=0.009655
objective_effort=0.423568
objective_height=4.429407
objective_ligament=0.092661
solver_duration=1256.391003
status=Solve_Succeeded
success=true
DataType=double
version=3
OpenSimVersion=4.4-2022-07-23-0e9fedc
endheader
time	/jointset/ground_pelvis/pelvis_tilt/value	/jointset/ground_pelvis/pelvis_tx/value	/jointset/ground_pelvis/pelvis_ty/value	/jointset/hip_r/hip_flexion_r/value	/jointset/hip_r/hip_adduction_r/value	/jointset/hip_r/hip_rotation_r/value	/jointset/back/lumbar_extension/value	/jointset/patellofemoral_r/patellar_flexion_r/value	/jointset/knee_r/knee_flexion_r/value	/jointset/knee_r/knee_adduction_r/value	/jointset/knee_r/knee_rotation_r/value	/jointset/ankle_r/ankle_angle_r/value	/jointset/subtalar_r/subtalar_angle_r/value	/jointset/ground_pelvis/pelvis_tilt/speed	/jointset/ground_pelvis/pelvis_tx/speed	/jointset/ground_pelvis/pelvis_ty/speed	/jointset/hip_r/hip_flexion_r/speed	/jointset/hip_r/hip_adduction_r/speed	/jointset/hip_r/hip_rotation_r/speed	/jointset/back/lumbar_extension/speed	/jointset/patellofemoral_r/patellar_flexion_r/speed	/jointset/knee_r/knee_flexion_r/speed	/jointset/knee_r/knee_adduction_r/speed	/jointset/knee_r/knee_rotation_r/speed	/jointset/ankle_r/ankle_angle_r/speed	/jointset/subtalar_r/subtalar_angle_r/speed	/forceset/tau_hip_flexion_r	/forceset/tau_hip_adduction_r	/forceset/tau_hip_rotation_r	/forceset/tau_knee_flexion_r	/forceset/tau_ankle_angle_r	/forceset/tau_subtalar_angle_r	/forceset/tau_lumbar_extension	lambda_cid13_p0	lambda_cid14_p0	lambda_cid14_p1	lambda_cid14_p2	lambda_cid14_p3	lambda_cid14_p4	lambda_cid14_p5	/jointset/ground_pelvis/pelvis_tilt/accel	/jointset/ground_pelvis/pelvis_tx/accel	/jointset/ground_pelvis/pelvis_ty/accel	/jointset/hip_r/hip_flexion_r/accel	/jointset/hip_r/hip_adduction_r/accel	/jointset/hip_r/hip_rotation_r/accel	/jointset/back/lumbar_extension/accel	/jointset/patellofemoral_r/patellar_flexion_r/accel	/jointset/knee_r/knee_flexion_r/accel	/jointset/knee_r/knee_adduction_r/accel	/jointset/knee_r/knee_rotation_r/accel	/jointset/ankle_r/ankle_angle_r/accel	/jointset/subtalar_r/subtalar_angle_r/accel	gamma_cid13_p0	gamma_cid14_p0	gamma_cid14_p1	gamma_cid14_p2	gamma_cid14_p3	gamma_cid14_p4	gamma_cid14_p5
1.5	-0.05141656433488406	0.04003579689147299	0.8300976196988056	0.7411536172803352	-0.2173903945664302	-0.148112830554421	-0.619088679489892	0.8963112105487558	0.8963112105487536	-0.06066315197696773	0.1745322966832785	0.3005893698953699	0.1500669219573259	0.3913230513892903	0.2070767706496806	0.4561019810049187	-1.826190098169505	0.02799548648618675	-0.1704002907580373	0.8029176483136687	-1.854513646901739	-1.854513646901745	0.4319128666727328	-5.098779714623954e-05	-0.5228581153360068	-0.1721757900131996	-0.1395563476326481	-0.002017672051882701	0.01873900524658817	-0.3068507714137009	0.01421118479925717	0.0008748198472059141	0.2003640361095582	-11.67974598447103	-37.57534733513025	-5.037676223880667	-0.1017047192575592	-2.017153909774289	-632.7056076718658	68.01575943635076	0.07872830648000829	0.4980117387116247	-0.4662124033854355	-0.8889583665183811	-0.191484509105167	-0.5913459751296168	1.667488983022936	-1.231273413613868	-1.231273413613865	0.3875434497199323	-0.002580665884057641	-0.5659745576304727	-0.3516825408831455	1.291739141003867e-07	1.628916369055314e-07	-2.860265924874708e-07	1.739776130897463e-06	-5.277933727717065e-08	2.497894754644364e-07	-3.906655322241158e-07
1.51	-0.04749973739290114	0.04213119098255605	0.8346343947481737	0.7228493381025765	-0.2171207755056204	-0.1498455633083917	-0.6109775159323072	0.8777070715452975	0.87770707154529	-0.05632299941985743	0.1745321589770246	0.2953330175011026	0.1483267449098466	0.3919877227840074	0.2119718649513365	0.4511568233995314	-1.83441767005683	0.0259163091835163	-0.1761282631271532	0.8191969876881788	-1.866048382978713	-1.866048382978709	0.4361027215480132	1.060837123923515e-05	-0.5283340473304836	-0.1758318023760983	-0.1330866620279788	-0.002743295494327925	0.01843555332858328	-0.3028296474637756	0.01575299649156135	-0.0001466170646931018	0.1942384214784342	-12.64342315820075	-36.86766536500453	-5.250034287382797	-0.1904591465527511	-2.01032388674407	-628.362777900021	67.24351225569086	0.05215463752745706	0.4807325361632349	-0.5230565098956341	-0.7524329971913073	-0.2178103746533268	-0.5606320132779552	1.590445087420503	-1.074729241960956	-1.07472924195931	0.4324065514264296	0.008803645001509531	-0.5266318965926973	-0.3683430656045023	1.13743697698148e-07	1.194537348122134e-07	-4.676809180991192e-07	1.331814856265913e-06	-1.249136967218854e-08	2.227020712334164e-07	-4.829937783193189e-07
1.52	-0.04357790012065801	0.04427463086870984	0.839118840407332	0.704470227926477	-0.2168722834245994	-0.151634997615147	-0.6027071012464255	0.8589955540736197	0.8589955540736154	-0.05194140830499562	0.1745322920097872	0.2900242599116432	0.146550851242416	0.3923251174411168	0.2166859296638262	0.4456361029629539	-1.841156297838223	0.02377009052862956	-0.1817406013152837	0.8347678739729057	-1.875989340544556	-1.875989340544541	0.4402005782230664	3.160011691125616e-06	-0.5333391543744171	-0.1793191140034476	-0.1266169764232917	-0.003468918936765302	0.01813210141057422	-0.2988085235138476	0.01729480818386725	-0.001168053976579663	0.188112806847325	-13.60523737472933	-36.16071828679662	-5.458888982590571	-0.2839213174435204	-2.017543604090483	-624.0413041322303	66.52873557359658	0.01327295895847895	0.4618058208783669	-0.5813249696234558	-0.5911695453321402	-0.2048927795484353	-0.5682191389325766	1.525798365066351	-0.9125177113876616	-0.9125177113876596	0.3691438096744952	-0.01638957147074032	-0.4718095675218641	-0.3179423937732948	1.054665768054226e-07	8.992321564988618e-08	-6.278304038464773e-07	1.050116098112006e-06	1.777993601500634e-08	2.093764474406641e-07	-5.6818598459476e-07
1.53	-0.03965436719066855	0.04646427223185095	0.8435452644438318	0.6860312251479882	-0.2166454525743784	-0.1534807719918966	-0.5942847099607248	0.8401925589703666	0.8401925589703698	-0.04752011136628716	0.174532349707429	0.2846679000532473	0.1447411850997609	0.3923200819800935	0.2212081306332364	0.4395582165156304	-1.8463845485613	0.02159112279235048	-0.1874152792104806	0.8495750411488122	-1.884335725541612	-1.884335725541592	0.4440174224353738	5.322616318781743e-06	-0.5378459839588835	-0.1825742434519781	-0.1199076773862539	-0.004872715454439022	0.01789574985341569	-0.2952988635408186	0.01926144386840928	-0.002003434117334997	0.1818164521017984	-14.56140042884452	-35.31406901461811	-5.546806507721979	-0.4145648343194897	-2.118253517248707	-619.9163341138266	66.18922647481571	-0.01659410941046221	0.4423049686510437	-0.6345513821516056	-0.4496880821772124	-0.22508123826035	-0.5670706272993279	1.437874591120698	-0.7546265947288116	-0.7546265947281871	0.3816457099506326	0.008197026076769132	-0.4270637338179648	-0.3233516058649296	1.047896198915551e-07	7.51692908517366e-08	-7.651309972380272e-07	9.025712637155931e-07	3.74085384145524e-08	2.106727153635709e-07	-6.45796148561704e-07
1.54	-0.03573272507744354	0.04869811115142193	0.8479082034358855	0.6675477328129942	-0.2164405478950397	-0.1553832888500919	-0.5857183072638111	0.8213143144769741	0.8213143144769725	-0.04306190778886441	0.1745323646010503	0.2792690830830246	0.1429001569855263	0.3919469540879553	0.2255254409497991	0.4329390940737287	-1.850054209139652	0.01938485635235483	-0.1930890976051172	0.8635701562154331	-1.89103921857324	-1.891039218573216	0.4475819059653476	-5.400793163178904e-06	-0.5418305767397076	-0.1855915083193872	-0.1131983783492067	-0.006276511972088721	0.01765939829614704	-0.2917892035678013	0.02122807955295755	-0.002838814258049354	0.1755200973562776	-15.509268453827	-34.4689084062126	-5.633701233164004	-0.5468376708814934	-2.227705770065374	-615.8132439887257	65.89643422198691	-0.0603455272644964	0.4208276903088937	-0.689572168539061	-0.2794515163874159	-0.2103525202917378	-0.5680472388205295	1.363387943209271	-0.5839393183020678	-0.5839393183020695	0.3186716732077362	-0.01896677429265719	-0.3673622067934218	-0.2703694775490108	1.052096357870062e-07	6.233361102852444e-08	-8.955131101162284e-07	7.65744963389787e-07	5.578219427855817e-08	2.111230503090247e-07	-7.116048007319893e-07
